<svg width="287" height="58" viewBox="0 0 287 58" fill="none" xmlns="http://www.w3.org/2000/svg">
<path d="M25.6633 27.0668C25.6633 27.0668 23.9024 15.4668 37.508 15.4668C51.1136 15.4668 49.3527 29.0001 49.3527 29.0001C49.3527 29.0001 49.5126 34.9161 37.508 46.4001C27.365 56.1035 25.6633 56.0069 25.6633 56.0069" stroke="white" stroke-width="2.78639" stroke-linecap="round" stroke-linejoin="round"/>
<path d="M25.6098 27.0842C25.6098 27.0842 27.3629 15.4668 13.8184 15.4668C0.274035 15.4668 2.02508 29.0175 2.02508 29.0175C2.02508 29.0175 1.86715 34.9413 13.8184 46.4407C23.916 56.1557 25.6098 56.0591 25.6098 56.0591" stroke="white" stroke-width="2.78639" stroke-linecap="round" stroke-linejoin="round"/>
<path d="M25.6635 27.0673C25.6635 27.0673 23.6893 21.2673 27.6376 19.334" stroke="white" stroke-width="2.78639" stroke-linecap="round" stroke-linejoin="round"/>
<path fill-rule="evenodd" clip-rule="evenodd" d="M23.6893 19.3336C38.578 22.5159 35.534 1.93359 35.534 1.93359C35.534 1.93359 16.3614 10.1754 23.6893 19.3336Z" stroke="white" stroke-width="2.78639" stroke-linecap="round" stroke-linejoin="round"/>
<path d="M25.6635 15.4677C25.6635 15.4677 24.404 14.7678 31.5859 7.73438" stroke="white" stroke-width="1.39319" stroke-linecap="round" stroke-linejoin="round"/>
<mask id="path-6-inside-1_1_239" fill="white">
<path fill-rule="evenodd" clip-rule="evenodd" d="M69.7177 45.8577V27.058H75.2768V24.6336H69.7177V23.6979C69.6917 22.732 69.8615 21.7706 70.2172 20.8694C70.4659 20.1918 70.9303 19.6104 71.5418 19.2106C72.0214 18.9156 72.5402 18.6866 73.0836 18.5301C73.5719 18.4003 74.0759 18.3352 74.5819 18.3367C74.9316 18.3262 75.2813 18.3548 75.6243 18.4218V15.8698C75.1809 15.7839 74.7299 15.7412 74.2779 15.7422C73.5235 15.7424 72.7721 15.8353 72.0413 16.0187C71.1938 16.2489 70.3827 16.5924 69.6309 17.0395C68.6868 17.6211 67.9507 18.4758 67.5245 19.4851C66.9516 20.8012 66.6775 22.2234 66.721 23.6534V24.6317H63.9849V27.0561H66.7249V45.8558H69.7217L69.7177 45.8577ZM78.8381 43.1143C80.4558 44.7037 82.5199 45.7856 84.7676 46.2222C87.0153 46.6588 89.3448 46.4304 91.4594 45.5659C93.574 44.7015 95.3781 43.2403 96.6418 41.3683C97.9056 39.4963 98.5718 37.2983 98.5556 35.0543C98.5909 33.5793 98.3105 32.1133 97.7326 30.7508C97.1546 29.3883 96.2917 28.1594 95.1996 27.1431C92.9912 25.0949 90.0653 23.9534 87.0238 23.9534C83.9823 23.9534 81.0564 25.0949 78.848 27.1431C77.7592 28.1613 76.8994 29.3908 76.3235 30.7531C75.7477 32.1153 75.4685 33.5803 75.5039 35.0543C75.4652 36.5499 75.7412 38.0373 76.3148 39.424C76.8885 40.8106 77.7474 42.0668 78.8381 43.1143ZM80.9879 29.001C81.7792 28.2258 82.7186 27.6109 83.7525 27.1913C84.7865 26.7718 85.8948 26.5558 87.014 26.5558C88.1332 26.5558 89.2414 26.7718 90.2753 27.1913C91.3093 27.6109 92.2487 28.2258 93.0399 29.001C93.8509 29.7939 94.4885 30.7402 94.9141 31.7822C95.3397 32.8242 95.5443 33.9401 95.5155 35.062C95.551 36.207 95.3501 37.3472 94.9247 38.4143C94.4993 39.4814 93.8582 40.4534 93.0399 41.2719C92.2523 42.0534 91.3141 42.6739 90.2796 43.0974C89.2452 43.5209 88.1352 43.7389 87.014 43.7389C85.8928 43.7389 84.7827 43.5209 83.7483 43.0974C82.7138 42.6739 81.7756 42.0534 80.9879 41.2719C80.1749 40.4506 79.5387 39.4777 79.1172 38.4109C78.6957 37.3442 78.4974 36.2053 78.5341 35.062C78.505 33.9419 78.7073 32.8276 79.129 31.7861C79.5507 30.7445 80.183 29.7972 80.9879 29.001ZM103.767 43.1143C105.385 44.7037 107.449 45.7856 109.697 46.2222C111.944 46.6588 114.274 46.4304 116.389 45.5659C118.503 44.7015 120.307 43.2403 121.571 41.3683C122.835 39.4963 123.501 37.2983 123.485 35.0543C123.519 33.5785 123.237 32.1122 122.657 30.7496C122.077 29.3871 121.213 28.1585 120.119 27.1431C117.91 25.0949 114.985 23.9534 111.943 23.9534C108.902 23.9534 105.976 25.0949 103.767 27.1431C102.678 28.1613 101.819 29.3908 101.243 30.7531C100.667 32.1153 100.388 33.5803 100.423 35.0543C100.386 36.5506 100.663 38.0385 101.239 39.4252C101.814 40.8118 102.675 42.0677 103.767 43.1143ZM105.917 29.001C107.515 27.4384 109.68 26.5606 111.938 26.5606C114.196 26.5606 116.362 27.4384 117.959 29.001C118.77 29.7939 119.408 30.7402 119.833 31.7822C120.259 32.8242 120.464 33.9401 120.435 35.062C120.47 36.207 120.269 37.3472 119.844 38.4143C119.419 39.4814 118.777 40.4534 117.959 41.2719C117.172 42.0519 116.234 42.6711 115.201 43.0938C114.167 43.5164 113.058 43.734 111.938 43.734C110.818 43.734 109.709 43.5164 108.676 43.0938C107.642 42.6711 106.705 42.0519 105.917 41.2719C105.104 40.4506 104.468 39.4777 104.046 38.4109C103.625 37.3442 103.427 36.2053 103.463 35.062C103.434 33.9419 103.636 32.8276 104.058 31.7861C104.48 30.7445 105.112 29.7972 105.917 29.001ZM134.948 46.3759C136.519 46.4194 138.069 46.022 139.416 45.2307C140.763 44.4393 141.851 43.2871 142.551 41.9099H142.636L142.507 43.4411V45.8655H145.372V15.9568H142.411V26.5476C142.406 27.0891 142.45 27.63 142.543 28.1639H142.454C141.805 26.8777 140.786 25.8058 139.522 25.0802C138.243 24.3308 136.778 23.9409 135.288 23.9531C133.941 23.9112 132.602 24.1667 131.369 24.7005C130.136 25.2342 129.042 26.0327 128.167 27.0367C126.265 29.3141 125.29 32.2003 125.431 35.1393C125.293 38.0591 126.208 40.9336 128.015 43.2593C128.842 44.2699 129.899 45.077 131.102 45.6158C132.304 46.1546 133.619 46.4103 134.941 46.3624L134.948 46.3759ZM130.52 28.8947C131.131 28.1667 131.9 27.5824 132.771 27.1848C133.643 26.7872 134.595 26.5867 135.556 26.5979C136.555 26.5567 137.548 26.7659 138.441 27.2058C139.334 27.6456 140.098 28.3015 140.66 29.1112C141.889 30.8739 142.519 32.9709 142.462 35.1045C142.645 37.4449 141.924 39.7673 140.442 41.6121C139.818 42.3088 139.046 42.8638 138.18 43.2384C137.314 43.613 136.375 43.7983 135.428 43.7813C134.461 43.8034 133.502 43.601 132.63 43.1907C131.758 42.7805 130.997 42.174 130.41 41.4207C129.045 39.6108 128.362 37.3941 128.477 35.1471C128.347 32.8851 129.075 30.6558 130.52 28.8869V28.8947ZM151.517 41.5909C151.803 42.4326 152.277 43.2013 152.905 43.8413C153.532 44.4814 154.297 44.9767 155.144 45.2913C155.847 45.5868 156.583 45.8009 157.337 45.9293C157.99 46.0286 158.65 46.0784 159.311 46.0781C159.805 46.062 160.298 46.0194 160.788 45.9505V42.2849C160.458 42.3452 160.124 42.3737 159.789 42.37C159.418 42.3702 159.048 42.3418 158.681 42.2849C158.26 42.2087 157.852 42.0787 157.465 41.8983C157.025 41.7055 156.627 41.4311 156.293 41.0901C155.915 40.6761 155.627 40.1914 155.446 39.6653C155.201 38.9751 155.083 38.2478 155.098 37.5173V27.9087H160.397V24.5543H155.098V18.4237H150.972V24.5543H148.011V27.9145H150.878V37.9949C150.857 39.2198 151.074 40.4375 151.517 41.5831V41.5909ZM167.174 45.8655V35.6575C167.096 33.5468 167.841 31.4862 169.259 29.8942C169.91 29.1601 170.719 28.5757 171.627 28.1824C172.535 27.7891 173.521 27.5966 174.514 27.6187C175.139 27.5408 175.774 27.6302 176.351 27.8773C176.928 28.1244 177.427 28.5201 177.793 29.0223C178.427 30.2597 178.719 31.6381 178.64 33.0204V45.8655H182.852V32.0769C182.852 26.576 180.348 23.8255 175.339 23.8255C173.493 23.78 171.681 24.3168 170.171 25.3567C168.866 26.2178 167.805 27.3884 167.087 28.7593H167.01L167.184 26.9729V15.8292H162.971V45.8577H167.184L167.174 45.8655ZM188.824 43.1588C189.927 44.2271 191.242 45.0631 192.687 45.6153C194.132 46.1676 195.678 46.4244 197.228 46.3701C198.807 46.3623 200.373 46.0822 201.853 45.5426C203.287 45.0561 204.608 44.2966 205.74 43.3077L203.964 40.2878C202.212 41.9013 199.897 42.8001 197.492 42.8011C195.565 42.848 193.693 42.1708 192.259 40.9084C191.527 40.234 190.943 39.4202 190.543 38.5169C190.144 37.6136 189.937 36.6399 189.935 35.6555H205.926C206.021 35.0798 206.08 34.4986 206.1 33.9155C206.195 31.2907 205.298 28.7237 203.581 26.7061C202.711 25.7433 201.63 24.9851 200.419 24.488C199.209 23.9909 197.899 23.7677 196.588 23.8351C195.125 23.7925 193.668 24.0463 192.309 24.5806C190.95 25.1149 189.719 25.9181 188.692 26.9401C187.636 28.0249 186.814 29.3074 186.277 30.7107C185.74 32.114 185.497 33.6092 185.565 35.1065C185.52 36.595 185.786 38.0768 186.346 39.4611C186.906 40.8454 187.75 42.1031 188.824 43.1569V43.1588ZM192.255 28.5273C193.423 27.5221 194.935 26.9832 196.49 27.0174C197.186 26.999 197.878 27.1218 198.524 27.378C199.169 27.6342 199.754 28.0182 200.24 28.5061C201.296 29.6441 201.862 31.1375 201.82 32.6743H190.05C190.255 31.0777 191.037 29.6057 192.255 28.5254V28.5273ZM213.204 45.8577V36.9277C213.151 34.7589 213.748 32.6224 214.92 30.7816C215.441 29.9463 216.181 29.263 217.063 28.8029C217.946 28.3429 218.938 28.1229 219.936 28.1658C220.343 28.1526 220.751 28.1811 221.152 28.2509V24.1677C220.778 24.1179 220.401 24.0895 220.023 24.0826C218.433 24.0706 216.897 24.648 215.723 25.6989C214.465 26.7959 213.534 28.2072 213.031 29.7821H212.944L213.074 28.2083V24.3417H208.992V45.8577H213.204ZM223.237 44.6243C224.693 45.7882 226.526 46.4052 228.405 46.3643C229.924 46.3766 231.413 45.9473 232.683 45.1308C233.928 44.3546 234.939 43.2683 235.615 41.9833H235.709L235.579 43.6847V45.8539H239.527V32.2432C239.606 31.1053 239.446 29.9638 239.057 28.8886C238.669 27.8135 238.06 26.8274 237.269 25.9908C236.398 25.2297 235.381 24.6459 234.278 24.2735C233.174 23.9011 232.006 23.7475 230.841 23.8216C229.292 23.8286 227.753 24.0726 226.281 24.5447C224.956 24.9196 223.718 25.5405 222.633 26.3736L224.327 29.3935C226.105 28.0772 228.265 27.3475 230.494 27.3093C231.148 27.218 231.816 27.2771 232.443 27.482C233.071 27.687 233.641 28.0321 234.109 28.4902C234.576 28.9482 234.929 29.5065 235.138 30.121C235.347 30.7355 235.408 31.3893 235.314 32.0305V32.4559H234.185C232.835 32.4516 231.485 32.5368 230.146 32.7111C228.739 32.9118 227.352 33.232 226.001 33.6681C224.599 34.0781 223.352 34.8853 222.418 35.9881C221.5 37.1228 221.023 38.5395 221.071 39.9862C221.039 40.8715 221.219 41.7519 221.596 42.5571C221.973 43.3623 222.537 44.0702 223.243 44.6243H223.237ZM234.225 35.4371H235.311V36.2452C235.317 37.9558 234.736 39.6187 233.66 40.9664C233.181 41.6334 232.543 42.1758 231.801 42.5464C231.059 42.917 230.237 43.1047 229.404 43.0931C228.293 43.1603 227.199 42.7932 226.364 42.0723C226.019 41.7656 225.744 41.3911 225.557 40.9734C225.37 40.5557 225.275 40.104 225.278 39.6479C225.278 36.8407 228.26 35.4371 234.225 35.4371ZM247.819 54.3644V44.5817C247.828 43.9537 247.77 43.3263 247.645 42.7103H247.732C248.435 43.8577 249.437 44.8012 250.635 45.444C251.833 46.0868 253.185 46.4058 254.55 46.3681C255.904 46.4073 257.249 46.1508 258.488 45.6175C259.728 45.0841 260.83 44.2871 261.716 43.2845C263.654 40.9905 264.645 38.0701 264.496 35.0968C264.64 32.1587 263.716 29.2656 261.89 26.9304C261.044 25.9137 259.967 25.1038 258.746 24.5649C257.525 24.026 256.193 23.7729 254.854 23.8255C253.323 23.8037 251.812 24.17 250.468 24.8888C249.192 25.571 248.149 26.6066 247.471 27.8661H247.384L247.515 26.2499V24.3359H243.606V54.3644H247.819ZM249.528 29.3877C250.091 28.7598 250.786 28.2595 251.566 27.9216C252.346 27.5838 253.192 27.4164 254.045 27.4311C254.911 27.4091 255.77 27.5884 256.551 27.9544C257.332 28.3204 258.014 28.8626 258.54 29.5365C259.752 31.1521 260.358 33.1275 260.255 35.1297C260.368 37.15 259.719 39.1406 258.431 40.7228C257.885 41.377 257.195 41.9022 256.413 42.2593C255.631 42.6164 254.777 42.7964 253.915 42.7857C253.023 42.8109 252.14 42.6157 251.347 42.2179C250.553 41.8202 249.874 41.2328 249.374 40.5101C248.246 38.9528 247.66 37.0812 247.702 35.1722C247.547 33.0878 248.199 31.0225 249.528 29.3877ZM264.334 53.4615L264.855 53.7593C265.345 54.0493 265.87 54.2779 266.419 54.4398C267.104 54.6654 267.823 54.7803 268.547 54.7801C270.076 54.7987 271.573 54.3448 272.825 53.4828C274.143 52.5415 275.135 51.2281 275.669 49.7186L286.006 24.3262H281.446L276.104 38.4396C275.814 39.2774 275.567 40.1292 275.365 40.9916H275.278L274.453 38.397L268.938 24.3185H264.2L273.407 45.5851L272.321 48.0521C272.088 48.931 271.575 49.7142 270.857 50.2879C270.138 50.8616 269.252 51.1959 268.326 51.2421C267.401 51.2222 266.512 50.8918 265.807 50.3063L264.334 53.4615Z"/>
</mask>
<path fill-rule="evenodd" clip-rule="evenodd" d="M69.7177 45.8577V27.058H75.2768V24.6336H69.7177V23.6979C69.6917 22.732 69.8615 21.7706 70.2172 20.8694C70.4659 20.1918 70.9303 19.6104 71.5418 19.2106C72.0214 18.9156 72.5402 18.6866 73.0836 18.5301C73.5719 18.4003 74.0759 18.3352 74.5819 18.3367C74.9316 18.3262 75.2813 18.3548 75.6243 18.4218V15.8698C75.1809 15.7839 74.7299 15.7412 74.2779 15.7422C73.5235 15.7424 72.7721 15.8353 72.0413 16.0187C71.1938 16.2489 70.3827 16.5924 69.6309 17.0395C68.6868 17.6211 67.9507 18.4758 67.5245 19.4851C66.9516 20.8012 66.6775 22.2234 66.721 23.6534V24.6317H63.9849V27.0561H66.7249V45.8558H69.7217L69.7177 45.8577ZM78.8381 43.1143C80.4558 44.7037 82.5199 45.7856 84.7676 46.2222C87.0153 46.6588 89.3448 46.4304 91.4594 45.5659C93.574 44.7015 95.3781 43.2403 96.6418 41.3683C97.9056 39.4963 98.5718 37.2983 98.5556 35.0543C98.5909 33.5793 98.3105 32.1133 97.7326 30.7508C97.1546 29.3883 96.2917 28.1594 95.1996 27.1431C92.9912 25.0949 90.0653 23.9534 87.0238 23.9534C83.9823 23.9534 81.0564 25.0949 78.848 27.1431C77.7592 28.1613 76.8994 29.3908 76.3235 30.7531C75.7477 32.1153 75.4685 33.5803 75.5039 35.0543C75.4652 36.5499 75.7412 38.0373 76.3148 39.424C76.8885 40.8106 77.7474 42.0668 78.8381 43.1143ZM80.9879 29.001C81.7792 28.2258 82.7186 27.6109 83.7525 27.1913C84.7865 26.7718 85.8948 26.5558 87.014 26.5558C88.1332 26.5558 89.2414 26.7718 90.2753 27.1913C91.3093 27.6109 92.2487 28.2258 93.0399 29.001C93.8509 29.7939 94.4885 30.7402 94.9141 31.7822C95.3397 32.8242 95.5443 33.9401 95.5155 35.062C95.551 36.207 95.3501 37.3472 94.9247 38.4143C94.4993 39.4814 93.8582 40.4534 93.0399 41.2719C92.2523 42.0534 91.3141 42.6739 90.2796 43.0974C89.2452 43.5209 88.1352 43.7389 87.014 43.7389C85.8928 43.7389 84.7827 43.5209 83.7483 43.0974C82.7138 42.6739 81.7756 42.0534 80.9879 41.2719C80.1749 40.4506 79.5387 39.4777 79.1172 38.4109C78.6957 37.3442 78.4974 36.2053 78.5341 35.062C78.505 33.9419 78.7073 32.8276 79.129 31.7861C79.5507 30.7445 80.183 29.7972 80.9879 29.001ZM103.767 43.1143C105.385 44.7037 107.449 45.7856 109.697 46.2222C111.944 46.6588 114.274 46.4304 116.389 45.5659C118.503 44.7015 120.307 43.2403 121.571 41.3683C122.835 39.4963 123.501 37.2983 123.485 35.0543C123.519 33.5785 123.237 32.1122 122.657 30.7496C122.077 29.3871 121.213 28.1585 120.119 27.1431C117.91 25.0949 114.985 23.9534 111.943 23.9534C108.902 23.9534 105.976 25.0949 103.767 27.1431C102.678 28.1613 101.819 29.3908 101.243 30.7531C100.667 32.1153 100.388 33.5803 100.423 35.0543C100.386 36.5506 100.663 38.0385 101.239 39.4252C101.814 40.8118 102.675 42.0677 103.767 43.1143ZM105.917 29.001C107.515 27.4384 109.68 26.5606 111.938 26.5606C114.196 26.5606 116.362 27.4384 117.959 29.001C118.77 29.7939 119.408 30.7402 119.833 31.7822C120.259 32.8242 120.464 33.9401 120.435 35.062C120.47 36.207 120.269 37.3472 119.844 38.4143C119.419 39.4814 118.777 40.4534 117.959 41.2719C117.172 42.0519 116.234 42.6711 115.201 43.0938C114.167 43.5164 113.058 43.734 111.938 43.734C110.818 43.734 109.709 43.5164 108.676 43.0938C107.642 42.6711 106.705 42.0519 105.917 41.2719C105.104 40.4506 104.468 39.4777 104.046 38.4109C103.625 37.3442 103.427 36.2053 103.463 35.062C103.434 33.9419 103.636 32.8276 104.058 31.7861C104.48 30.7445 105.112 29.7972 105.917 29.001ZM134.948 46.3759C136.519 46.4194 138.069 46.022 139.416 45.2307C140.763 44.4393 141.851 43.2871 142.551 41.9099H142.636L142.507 43.4411V45.8655H145.372V15.9568H142.411V26.5476C142.406 27.0891 142.45 27.63 142.543 28.1639H142.454C141.805 26.8777 140.786 25.8058 139.522 25.0802C138.243 24.3308 136.778 23.9409 135.288 23.9531C133.941 23.9112 132.602 24.1667 131.369 24.7005C130.136 25.2342 129.042 26.0327 128.167 27.0367C126.265 29.3141 125.29 32.2003 125.431 35.1393C125.293 38.0591 126.208 40.9336 128.015 43.2593C128.842 44.2699 129.899 45.077 131.102 45.6158C132.304 46.1546 133.619 46.4103 134.941 46.3624L134.948 46.3759ZM130.52 28.8947C131.131 28.1667 131.9 27.5824 132.771 27.1848C133.643 26.7872 134.595 26.5867 135.556 26.5979C136.555 26.5567 137.548 26.7659 138.441 27.2058C139.334 27.6456 140.098 28.3015 140.66 29.1112C141.889 30.8739 142.519 32.9709 142.462 35.1045C142.645 37.4449 141.924 39.7673 140.442 41.6121C139.818 42.3088 139.046 42.8638 138.18 43.2384C137.314 43.613 136.375 43.7983 135.428 43.7813C134.461 43.8034 133.502 43.601 132.63 43.1907C131.758 42.7805 130.997 42.174 130.41 41.4207C129.045 39.6108 128.362 37.3941 128.477 35.1471C128.347 32.8851 129.075 30.6558 130.52 28.8869V28.8947ZM151.517 41.5909C151.803 42.4326 152.277 43.2013 152.905 43.8413C153.532 44.4814 154.297 44.9767 155.144 45.2913C155.847 45.5868 156.583 45.8009 157.337 45.9293C157.99 46.0286 158.65 46.0784 159.311 46.0781C159.805 46.062 160.298 46.0194 160.788 45.9505V42.2849C160.458 42.3452 160.124 42.3737 159.789 42.37C159.418 42.3702 159.048 42.3418 158.681 42.2849C158.26 42.2087 157.852 42.0787 157.465 41.8983C157.025 41.7055 156.627 41.4311 156.293 41.0901C155.915 40.6761 155.627 40.1914 155.446 39.6653C155.201 38.9751 155.083 38.2478 155.098 37.5173V27.9087H160.397V24.5543H155.098V18.4237H150.972V24.5543H148.011V27.9145H150.878V37.9949C150.857 39.2198 151.074 40.4375 151.517 41.5831V41.5909ZM167.174 45.8655V35.6575C167.096 33.5468 167.841 31.4862 169.259 29.8942C169.91 29.1601 170.719 28.5757 171.627 28.1824C172.535 27.7891 173.521 27.5966 174.514 27.6187C175.139 27.5408 175.774 27.6302 176.351 27.8773C176.928 28.1244 177.427 28.5201 177.793 29.0223C178.427 30.2597 178.719 31.6381 178.64 33.0204V45.8655H182.852V32.0769C182.852 26.576 180.348 23.8255 175.339 23.8255C173.493 23.78 171.681 24.3168 170.171 25.3567C168.866 26.2178 167.805 27.3884 167.087 28.7593H167.01L167.184 26.9729V15.8292H162.971V45.8577H167.184L167.174 45.8655ZM188.824 43.1588C189.927 44.2271 191.242 45.0631 192.687 45.6153C194.132 46.1676 195.678 46.4244 197.228 46.3701C198.807 46.3623 200.373 46.0822 201.853 45.5426C203.287 45.0561 204.608 44.2966 205.74 43.3077L203.964 40.2878C202.212 41.9013 199.897 42.8001 197.492 42.8011C195.565 42.848 193.693 42.1708 192.259 40.9084C191.527 40.234 190.943 39.4202 190.543 38.5169C190.144 37.6136 189.937 36.6399 189.935 35.6555H205.926C206.021 35.0798 206.08 34.4986 206.1 33.9155C206.195 31.2907 205.298 28.7237 203.581 26.7061C202.711 25.7433 201.63 24.9851 200.419 24.488C199.209 23.9909 197.899 23.7677 196.588 23.8351C195.125 23.7925 193.668 24.0463 192.309 24.5806C190.95 25.1149 189.719 25.9181 188.692 26.9401C187.636 28.0249 186.814 29.3074 186.277 30.7107C185.74 32.114 185.497 33.6092 185.565 35.1065C185.52 36.595 185.786 38.0768 186.346 39.4611C186.906 40.8454 187.75 42.1031 188.824 43.1569V43.1588ZM192.255 28.5273C193.423 27.5221 194.935 26.9832 196.49 27.0174C197.186 26.999 197.878 27.1218 198.524 27.378C199.169 27.6342 199.754 28.0182 200.24 28.5061C201.296 29.6441 201.862 31.1375 201.82 32.6743H190.05C190.255 31.0777 191.037 29.6057 192.255 28.5254V28.5273ZM213.204 45.8577V36.9277C213.151 34.7589 213.748 32.6224 214.92 30.7816C215.441 29.9463 216.181 29.263 217.063 28.8029C217.946 28.3429 218.938 28.1229 219.936 28.1658C220.343 28.1526 220.751 28.1811 221.152 28.2509V24.1677C220.778 24.1179 220.401 24.0895 220.023 24.0826C218.433 24.0706 216.897 24.648 215.723 25.6989C214.465 26.7959 213.534 28.2072 213.031 29.7821H212.944L213.074 28.2083V24.3417H208.992V45.8577H213.204ZM223.237 44.6243C224.693 45.7882 226.526 46.4052 228.405 46.3643C229.924 46.3766 231.413 45.9473 232.683 45.1308C233.928 44.3546 234.939 43.2683 235.615 41.9833H235.709L235.579 43.6847V45.8539H239.527V32.2432C239.606 31.1053 239.446 29.9638 239.057 28.8886C238.669 27.8135 238.06 26.8274 237.269 25.9908C236.398 25.2297 235.381 24.6459 234.278 24.2735C233.174 23.9011 232.006 23.7475 230.841 23.8216C229.292 23.8286 227.753 24.0726 226.281 24.5447C224.956 24.9196 223.718 25.5405 222.633 26.3736L224.327 29.3935C226.105 28.0772 228.265 27.3475 230.494 27.3093C231.148 27.218 231.816 27.2771 232.443 27.482C233.071 27.687 233.641 28.0321 234.109 28.4902C234.576 28.9482 234.929 29.5065 235.138 30.121C235.347 30.7355 235.408 31.3893 235.314 32.0305V32.4559H234.185C232.835 32.4516 231.485 32.5368 230.146 32.7111C228.739 32.9118 227.352 33.232 226.001 33.6681C224.599 34.0781 223.352 34.8853 222.418 35.9881C221.5 37.1228 221.023 38.5395 221.071 39.9862C221.039 40.8715 221.219 41.7519 221.596 42.5571C221.973 43.3623 222.537 44.0702 223.243 44.6243H223.237ZM234.225 35.4371H235.311V36.2452C235.317 37.9558 234.736 39.6187 233.66 40.9664C233.181 41.6334 232.543 42.1758 231.801 42.5464C231.059 42.917 230.237 43.1047 229.404 43.0931C228.293 43.1603 227.199 42.7932 226.364 42.0723C226.019 41.7656 225.744 41.3911 225.557 40.9734C225.37 40.5557 225.275 40.104 225.278 39.6479C225.278 36.8407 228.26 35.4371 234.225 35.4371ZM247.819 54.3644V44.5817C247.828 43.9537 247.77 43.3263 247.645 42.7103H247.732C248.435 43.8577 249.437 44.8012 250.635 45.444C251.833 46.0868 253.185 46.4058 254.55 46.3681C255.904 46.4073 257.249 46.1508 258.488 45.6175C259.728 45.0841 260.83 44.2871 261.716 43.2845C263.654 40.9905 264.645 38.0701 264.496 35.0968C264.64 32.1587 263.716 29.2656 261.89 26.9304C261.044 25.9137 259.967 25.1038 258.746 24.5649C257.525 24.026 256.193 23.7729 254.854 23.8255C253.323 23.8037 251.812 24.17 250.468 24.8888C249.192 25.571 248.149 26.6066 247.471 27.8661H247.384L247.515 26.2499V24.3359H243.606V54.3644H247.819ZM249.528 29.3877C250.091 28.7598 250.786 28.2595 251.566 27.9216C252.346 27.5838 253.192 27.4164 254.045 27.4311C254.911 27.4091 255.77 27.5884 256.551 27.9544C257.332 28.3204 258.014 28.8626 258.54 29.5365C259.752 31.1521 260.358 33.1275 260.255 35.1297C260.368 37.15 259.719 39.1406 258.431 40.7228C257.885 41.377 257.195 41.9022 256.413 42.2593C255.631 42.6164 254.777 42.7964 253.915 42.7857C253.023 42.8109 252.14 42.6157 251.347 42.2179C250.553 41.8202 249.874 41.2328 249.374 40.5101C248.246 38.9528 247.66 37.0812 247.702 35.1722C247.547 33.0878 248.199 31.0225 249.528 29.3877ZM264.334 53.4615L264.855 53.7593C265.345 54.0493 265.87 54.2779 266.419 54.4398C267.104 54.6654 267.823 54.7803 268.547 54.7801C270.076 54.7987 271.573 54.3448 272.825 53.4828C274.143 52.5415 275.135 51.2281 275.669 49.7186L286.006 24.3262H281.446L276.104 38.4396C275.814 39.2774 275.567 40.1292 275.365 40.9916H275.278L274.453 38.397L268.938 24.3185H264.2L273.407 45.5851L272.321 48.0521C272.088 48.931 271.575 49.7142 270.857 50.2879C270.138 50.8616 269.252 51.1959 268.326 51.2421C267.401 51.2222 266.512 50.8918 265.807 50.3063L264.334 53.4615Z" fill="#EFFFFD" stroke="white" stroke-width="2.78639" mask="url(#path-6-inside-1_1_239)"/>
</svg>
