<svg width="287" height="58" fill="none" xmlns="http://www.w3.org/2000/svg"><path d="M25.663 27.067s-1.76-11.6 11.845-11.6C51.114 15.467 49.353 29 49.353 29s.16 5.916-11.845 17.4c-10.143 9.703-11.845 9.607-11.845 9.607" stroke="#fff" stroke-width="2.786" stroke-linecap="round" stroke-linejoin="round"/><path d="M25.61 27.084s1.753-11.617-11.792-11.617c-13.544 0-11.793 13.55-11.793 13.55s-.158 5.924 11.793 17.424c10.098 9.715 11.792 9.618 11.792 9.618m.053-28.992s-1.974-5.8 1.975-7.733" stroke="#fff" stroke-width="2.786" stroke-linecap="round" stroke-linejoin="round"/><path clip-rule="evenodd" d="M23.69 19.334c14.888 3.182 11.844-17.4 11.844-17.4s-19.173 8.241-11.845 17.4z" stroke="#fff" stroke-width="2.786" stroke-linecap="round" stroke-linejoin="round"/><path d="M25.663 15.468s-1.259-.7 5.923-7.734" stroke="#fff" stroke-width="1.393" stroke-linecap="round" stroke-linejoin="round"/><mask id="a" fill="#fff"><path fill-rule="evenodd" clip-rule="evenodd" d="M69.718 45.858v-18.8h5.559v-2.424h-5.56v-.936a7.176 7.176 0 01.5-2.829 3.374 3.374 0 011.325-1.658c.48-.295.998-.524 1.542-.68.488-.13.992-.196 1.498-.194.35-.01.7.018 1.042.085V15.87a6.998 6.998 0 00-1.346-.128 9.2 9.2 0 00-2.237.277 9.68 9.68 0 00-2.41 1.02 5.297 5.297 0 00-2.106 2.446 9.7 9.7 0 00-.804 4.168v.979h-2.736v2.424h2.74v18.8h2.997l-.004.002zm9.12-2.744a11.62 11.62 0 005.93 3.108c2.247.437 4.577.208 6.691-.656a11.491 11.491 0 005.183-4.198 11.136 11.136 0 001.914-6.314 10.382 10.382 0 00-.823-4.303 10.569 10.569 0 00-2.533-3.608 12.026 12.026 0 00-8.176-3.19 12.026 12.026 0 00-8.176 3.19 10.59 10.59 0 00-2.525 3.61 10.402 10.402 0 00-.82 4.301 10.704 10.704 0 00.812 4.37 10.892 10.892 0 002.523 3.69zm2.15-14.113a8.537 8.537 0 012.764-1.81 8.678 8.678 0 016.523 0 8.534 8.534 0 012.765 1.81 8.258 8.258 0 011.874 2.781 8.12 8.12 0 01.602 3.28 8.35 8.35 0 01-.591 3.352 8.49 8.49 0 01-1.885 2.858 8.477 8.477 0 01-2.76 1.825 8.621 8.621 0 01-6.532 0 8.479 8.479 0 01-2.76-1.825 8.517 8.517 0 01-1.87-2.861 8.378 8.378 0 01-.584-3.349 8.161 8.161 0 01.595-3.276 8.3 8.3 0 011.859-2.785zm22.779 14.113a11.621 11.621 0 005.93 3.108 11.77 11.77 0 006.692-.656 11.495 11.495 0 005.182-4.198 11.136 11.136 0 001.914-6.314 10.377 10.377 0 00-.828-4.304 10.57 10.57 0 00-2.538-3.607 12.027 12.027 0 00-8.176-3.19 12.029 12.029 0 00-8.176 3.19 10.588 10.588 0 00-2.524 3.61 10.406 10.406 0 00-.82 4.301 10.7 10.7 0 00.816 4.371 10.892 10.892 0 002.528 3.69zm2.15-14.113a8.613 8.613 0 016.021-2.44 8.61 8.61 0 016.021 2.44 8.248 8.248 0 011.874 2.781 8.11 8.11 0 01.602 3.28 8.366 8.366 0 01-.591 3.352 8.489 8.489 0 01-1.885 2.858 8.478 8.478 0 01-2.758 1.822 8.627 8.627 0 01-6.525 0 8.483 8.483 0 01-2.759-1.822 8.525 8.525 0 01-1.871-2.861 8.4 8.4 0 01-.583-3.349 8.158 8.158 0 01.595-3.276 8.303 8.303 0 011.859-2.785zm29.031 17.375a8.367 8.367 0 004.468-1.145 8.13 8.13 0 003.135-3.321h.085l-.129 1.531v2.424h2.865V15.957h-2.961v10.59a8.937 8.937 0 00.132 1.617h-.089a7.41 7.41 0 00-2.932-3.084 8.246 8.246 0 00-4.234-1.127 9.15 9.15 0 00-3.919.748 8.973 8.973 0 00-3.202 2.336 11.756 11.756 0 00-2.736 8.102 12.283 12.283 0 002.584 8.12 8.448 8.448 0 003.087 2.357 8.626 8.626 0 003.839.746l.007.014zm-4.428-17.481a6.415 6.415 0 012.251-1.71 6.533 6.533 0 012.785-.587 5.974 5.974 0 012.885.608 5.839 5.839 0 012.219 1.905 10.006 10.006 0 011.802 5.994 9.235 9.235 0 01-2.02 6.507 6.499 6.499 0 01-2.262 1.626 6.634 6.634 0 01-2.752.543 6.24 6.24 0 01-2.798-.59 6.11 6.11 0 01-2.22-1.77 9.598 9.598 0 01-1.933-6.274 9.068 9.068 0 012.043-6.26v.008zm20.997 12.696a5.94 5.94 0 001.388 2.25 6.112 6.112 0 002.239 1.45c.703.296 1.439.51 2.193.638.653.1 1.313.15 1.974.15.494-.017.987-.06 1.477-.129v-3.665c-.33.06-.664.089-.999.085-.371 0-.741-.028-1.108-.085a4.972 4.972 0 01-1.216-.387 3.743 3.743 0 01-1.172-.808 4.084 4.084 0 01-.847-1.425 6.048 6.048 0 01-.348-2.148V27.91h5.299v-3.355h-5.299v-6.13h-4.126v6.13h-2.961v3.36h2.867v10.08a9.495 9.495 0 00.639 3.59v.007zm15.657 4.274V35.657a8.205 8.205 0 012.085-5.763 6.749 6.749 0 012.368-1.712 6.882 6.882 0 012.887-.563 3.553 3.553 0 011.837.258 3.476 3.476 0 011.442 1.145 7.789 7.789 0 01.847 3.998v12.845h4.212V32.078c0-5.501-2.504-8.251-7.513-8.251a8.737 8.737 0 00-5.168 1.53 9.19 9.19 0 00-3.084 3.403h-.077l.174-1.786V15.829h-4.213v30.029h4.213l-.01.008zm21.65-2.706a11.401 11.401 0 003.863 2.456 11.59 11.59 0 004.541.755 13.705 13.705 0 004.625-.827 11.544 11.544 0 003.887-2.235l-1.776-3.02a9.563 9.563 0 01-6.472 2.513 7.64 7.64 0 01-5.233-1.893 7.238 7.238 0 01-1.716-2.391 7.116 7.116 0 01-.608-2.861h15.991c.095-.576.154-1.157.174-1.74a10.532 10.532 0 00-2.519-7.21 8.725 8.725 0 00-3.162-2.218 8.887 8.887 0 00-3.831-.653 10.838 10.838 0 00-4.279.746 10.65 10.65 0 00-3.617 2.36 11.091 11.091 0 00-2.415 3.77 10.911 10.911 0 00-.712 4.395c-.045 1.489.221 2.97.781 4.355a10.917 10.917 0 002.478 3.696v.002zm3.431-14.632a6.284 6.284 0 014.235-1.51 5.148 5.148 0 012.034.361c.645.256 1.23.64 1.716 1.128a5.89 5.89 0 011.58 4.168h-11.77a6.686 6.686 0 012.205-4.149v.002zm20.949 17.33v-8.93a10.941 10.941 0 011.716-6.145 5.545 5.545 0 012.143-1.98 5.692 5.692 0 012.873-.636c.407-.013.815.015 1.216.085v-4.083a9.927 9.927 0 00-1.129-.085 6.377 6.377 0 00-4.3 1.616 9.092 9.092 0 00-2.692 4.083h-.087l.13-1.574v-3.866h-4.082v21.516h4.212zm10.033-1.233a8.003 8.003 0 005.168 1.74 7.798 7.798 0 004.278-1.233 8.225 8.225 0 002.932-3.148h.094l-.13 1.702v2.169h3.948v-13.61a8.189 8.189 0 00-.47-3.355 8.342 8.342 0 00-1.788-2.898 8.845 8.845 0 00-2.991-1.718 8.973 8.973 0 00-3.437-.451 15.16 15.16 0 00-4.56.723 10.83 10.83 0 00-3.648 1.829l1.694 3.02a10.677 10.677 0 016.167-2.085 4.346 4.346 0 011.949.173c.628.205 1.198.55 1.666 1.008.467.458.82 1.017 1.029 1.631.209.614.27 1.268.176 1.91v.425h-1.129c-1.35-.004-2.7.08-4.039.255-1.407.2-2.794.521-4.145.957a7.422 7.422 0 00-3.583 2.32 6.035 6.035 0 00-1.347 3.998 5.585 5.585 0 00.525 2.571 5.705 5.705 0 001.647 2.067h-.006zm10.988-9.187h1.086v.808a7.521 7.521 0 01-1.651 4.721 5.082 5.082 0 01-1.859 1.58 5.202 5.202 0 01-2.397.547 4.262 4.262 0 01-3.04-1.02 3.246 3.246 0 01-.807-1.1 3.192 3.192 0 01-.279-1.325c0-2.807 2.982-4.21 8.947-4.21zm13.594 18.927v-9.782a8.777 8.777 0 00-.174-1.872h.087a7.632 7.632 0 002.903 2.734 7.83 7.83 0 003.915.924 9.284 9.284 0 003.938-.75 9.108 9.108 0 003.228-2.334 11.768 11.768 0 002.78-8.187 12.276 12.276 0 00-2.606-8.167 8.611 8.611 0 00-3.144-2.365 8.787 8.787 0 00-3.892-.74 9.032 9.032 0 00-4.386 1.064 7.314 7.314 0 00-2.997 2.977h-.087l.131-1.616v-1.914h-3.909v30.028h4.213zm1.709-24.976a5.87 5.87 0 012.038-1.466 5.981 5.981 0 012.479-.49 5.575 5.575 0 012.506.522 5.462 5.462 0 011.989 1.582 8.58 8.58 0 011.715 5.594 8.135 8.135 0 01-1.824 5.593 5.724 5.724 0 01-2.018 1.536 5.842 5.842 0 01-2.498.527 5.39 5.39 0 01-2.568-.568 5.263 5.263 0 01-1.973-1.708 8.766 8.766 0 01-1.672-5.338 8.2 8.2 0 011.826-5.784zm14.806 24.073l.521.298c.49.29 1.015.519 1.564.68a6.8 6.8 0 002.128.341 7.39 7.39 0 004.278-1.297 7.845 7.845 0 002.844-3.764l10.337-25.393h-4.56l-5.342 14.114c-.29.837-.537 1.69-.739 2.552h-.087l-.825-2.595-5.515-14.078H264.2l9.207 21.266-1.086 2.467a4.263 4.263 0 01-1.464 2.236 4.41 4.41 0 01-2.531.954 4.08 4.08 0 01-2.519-.936l-1.473 3.156z"/></mask><path fill-rule="evenodd" clip-rule="evenodd" d="M69.718 45.858v-18.8h5.559v-2.424h-5.56v-.936a7.176 7.176 0 01.5-2.829 3.374 3.374 0 011.325-1.658c.48-.295.998-.524 1.542-.68.488-.13.992-.196 1.498-.194.35-.01.7.018 1.042.085V15.87a6.998 6.998 0 00-1.346-.128 9.2 9.2 0 00-2.237.277 9.68 9.68 0 00-2.41 1.02 5.297 5.297 0 00-2.106 2.446 9.7 9.7 0 00-.804 4.168v.979h-2.736v2.424h2.74v18.8h2.997l-.004.002zm9.12-2.744a11.62 11.62 0 005.93 3.108c2.247.437 4.577.208 6.691-.656a11.491 11.491 0 005.183-4.198 11.136 11.136 0 001.914-6.314 10.382 10.382 0 00-.823-4.303 10.569 10.569 0 00-2.533-3.608 12.026 12.026 0 00-8.176-3.19 12.026 12.026 0 00-8.176 3.19 10.59 10.59 0 00-2.525 3.61 10.402 10.402 0 00-.82 4.301 10.704 10.704 0 00.812 4.37 10.892 10.892 0 002.523 3.69zm2.15-14.113a8.537 8.537 0 012.764-1.81 8.678 8.678 0 016.523 0 8.534 8.534 0 012.765 1.81 8.258 8.258 0 011.874 2.781 8.12 8.12 0 01.602 3.28 8.35 8.35 0 01-.591 3.352 8.49 8.49 0 01-1.885 2.858 8.477 8.477 0 01-2.76 1.825 8.621 8.621 0 01-6.532 0 8.479 8.479 0 01-2.76-1.825 8.517 8.517 0 01-1.87-2.861 8.378 8.378 0 01-.584-3.349 8.161 8.161 0 01.595-3.276 8.3 8.3 0 011.859-2.785zm22.779 14.113a11.621 11.621 0 005.93 3.108 11.77 11.77 0 006.692-.656 11.495 11.495 0 005.182-4.198 11.136 11.136 0 001.914-6.314 10.377 10.377 0 00-.828-4.304 10.57 10.57 0 00-2.538-3.607 12.027 12.027 0 00-8.176-3.19 12.029 12.029 0 00-8.176 3.19 10.588 10.588 0 00-2.524 3.61 10.406 10.406 0 00-.82 4.301 10.7 10.7 0 00.816 4.371 10.892 10.892 0 002.528 3.69zm2.15-14.113a8.613 8.613 0 016.021-2.44 8.61 8.61 0 016.021 2.44 8.248 8.248 0 011.874 2.781 8.11 8.11 0 01.602 3.28 8.366 8.366 0 01-.591 3.352 8.489 8.489 0 01-1.885 2.858 8.478 8.478 0 01-2.758 1.822 8.627 8.627 0 01-6.525 0 8.483 8.483 0 01-2.759-1.822 8.525 8.525 0 01-1.871-2.861 8.4 8.4 0 01-.583-3.349 8.158 8.158 0 01.595-3.276 8.303 8.303 0 011.859-2.785zm29.031 17.375a8.367 8.367 0 004.468-1.145 8.13 8.13 0 003.135-3.321h.085l-.129 1.531v2.424h2.865V15.957h-2.961v10.59a8.937 8.937 0 00.132 1.617h-.089a7.41 7.41 0 00-2.932-3.084 8.246 8.246 0 00-4.234-1.127 9.15 9.15 0 00-3.919.748 8.973 8.973 0 00-3.202 2.336 11.756 11.756 0 00-2.736 8.102 12.283 12.283 0 002.584 8.12 8.448 8.448 0 003.087 2.357 8.626 8.626 0 003.839.746l.007.014zm-4.428-17.481a6.415 6.415 0 012.251-1.71 6.533 6.533 0 012.785-.587 5.974 5.974 0 012.885.608 5.839 5.839 0 012.219 1.905 10.006 10.006 0 011.802 5.994 9.235 9.235 0 01-2.02 6.507 6.499 6.499 0 01-2.262 1.626 6.634 6.634 0 01-2.752.543 6.24 6.24 0 01-2.798-.59 6.11 6.11 0 01-2.22-1.77 9.598 9.598 0 01-1.933-6.274 9.068 9.068 0 012.043-6.26v.008zm20.997 12.696a5.94 5.94 0 001.388 2.25 6.112 6.112 0 002.239 1.45c.703.296 1.439.51 2.193.638.653.1 1.313.15 1.974.15.494-.017.987-.06 1.477-.129v-3.665c-.33.06-.664.089-.999.085-.371 0-.741-.028-1.108-.085a4.972 4.972 0 01-1.216-.387 3.743 3.743 0 01-1.172-.808 4.084 4.084 0 01-.847-1.425 6.048 6.048 0 01-.348-2.148V27.91h5.299v-3.355h-5.299v-6.13h-4.126v6.13h-2.961v3.36h2.867v10.08a9.495 9.495 0 00.639 3.59v.007zm15.657 4.274V35.657a8.205 8.205 0 012.085-5.763 6.749 6.749 0 012.368-1.712 6.882 6.882 0 012.887-.563 3.553 3.553 0 011.837.258 3.476 3.476 0 011.442 1.145 7.789 7.789 0 01.847 3.998v12.845h4.212V32.078c0-5.501-2.504-8.251-7.513-8.251a8.737 8.737 0 00-5.168 1.53 9.19 9.19 0 00-3.084 3.403h-.077l.174-1.786V15.829h-4.213v30.029h4.213l-.01.008zm21.65-2.706a11.401 11.401 0 003.863 2.456 11.59 11.59 0 004.541.755 13.705 13.705 0 004.625-.827 11.544 11.544 0 003.887-2.235l-1.776-3.02a9.563 9.563 0 01-6.472 2.513 7.64 7.64 0 01-5.233-1.893 7.238 7.238 0 01-1.716-2.391 7.116 7.116 0 01-.608-2.861h15.991c.095-.576.154-1.157.174-1.74a10.532 10.532 0 00-2.519-7.21 8.725 8.725 0 00-3.162-2.218 8.887 8.887 0 00-3.831-.653 10.838 10.838 0 00-4.279.746 10.65 10.65 0 00-3.617 2.36 11.091 11.091 0 00-2.415 3.77 10.911 10.911 0 00-.712 4.395c-.045 1.489.221 2.97.781 4.355a10.917 10.917 0 002.478 3.696v.002zm3.431-14.632a6.284 6.284 0 014.235-1.51 5.148 5.148 0 012.034.361c.645.256 1.23.64 1.716 1.128a5.89 5.89 0 011.58 4.168h-11.77a6.686 6.686 0 012.205-4.149v.002zm20.949 17.33v-8.93a10.941 10.941 0 011.716-6.145 5.545 5.545 0 012.143-1.98 5.692 5.692 0 012.873-.636c.407-.013.815.015 1.216.085v-4.083a9.927 9.927 0 00-1.129-.085 6.377 6.377 0 00-4.3 1.616 9.092 9.092 0 00-2.692 4.083h-.087l.13-1.574v-3.866h-4.082v21.516h4.212zm10.033-1.233a8.003 8.003 0 005.168 1.74 7.798 7.798 0 004.278-1.233 8.225 8.225 0 002.932-3.148h.094l-.13 1.702v2.169h3.948v-13.61a8.189 8.189 0 00-.47-3.355 8.342 8.342 0 00-1.788-2.898 8.845 8.845 0 00-2.991-1.718 8.973 8.973 0 00-3.437-.451 15.16 15.16 0 00-4.56.723 10.83 10.83 0 00-3.648 1.829l1.694 3.02a10.677 10.677 0 016.167-2.085 4.346 4.346 0 011.949.173c.628.205 1.198.55 1.666 1.008.467.458.82 1.017 1.029 1.631.209.614.27 1.268.176 1.91v.425h-1.129c-1.35-.004-2.7.08-4.039.255-1.407.2-2.794.521-4.145.957a7.422 7.422 0 00-3.583 2.32 6.035 6.035 0 00-1.347 3.998 5.585 5.585 0 00.525 2.571 5.705 5.705 0 001.647 2.067h-.006zm10.988-9.187h1.086v.808a7.521 7.521 0 01-1.651 4.721 5.082 5.082 0 01-1.859 1.58 5.202 5.202 0 01-2.397.547 4.262 4.262 0 01-3.04-1.02 3.246 3.246 0 01-.807-1.1 3.192 3.192 0 01-.279-1.325c0-2.807 2.982-4.21 8.947-4.21zm13.594 18.927v-9.782a8.777 8.777 0 00-.174-1.872h.087a7.632 7.632 0 002.903 2.734 7.83 7.83 0 003.915.924 9.284 9.284 0 003.938-.75 9.108 9.108 0 003.228-2.334 11.768 11.768 0 002.78-8.187 12.276 12.276 0 00-2.606-8.167 8.611 8.611 0 00-3.144-2.365 8.787 8.787 0 00-3.892-.74 9.032 9.032 0 00-4.386 1.064 7.314 7.314 0 00-2.997 2.977h-.087l.131-1.616v-1.914h-3.909v30.028h4.213zm1.709-24.976a5.87 5.87 0 012.038-1.466 5.981 5.981 0 012.479-.49 5.575 5.575 0 012.506.522 5.462 5.462 0 011.989 1.582 8.58 8.58 0 011.715 5.594 8.135 8.135 0 01-1.824 5.593 5.724 5.724 0 01-2.018 1.536 5.842 5.842 0 01-2.498.527 5.39 5.39 0 01-2.568-.568 5.263 5.263 0 01-1.973-1.708 8.766 8.766 0 01-1.672-5.338 8.2 8.2 0 011.826-5.784zm14.806 24.073l.521.298c.49.29 1.015.519 1.564.68a6.8 6.8 0 002.128.341 7.39 7.39 0 004.278-1.297 7.845 7.845 0 002.844-3.764l10.337-25.393h-4.56l-5.342 14.114c-.29.837-.537 1.69-.739 2.552h-.087l-.825-2.595-5.515-14.078H264.2l9.207 21.266-1.086 2.467a4.263 4.263 0 01-1.464 2.236 4.41 4.41 0 01-2.531.954 4.08 4.08 0 01-2.519-.936l-1.473 3.156z" fill="#EFFFFD" stroke="#fff" stroke-width="2.786" mask="url(#a)"/></svg>