<svg width="55" height="55" fill="none" xmlns="http://www.w3.org/2000/svg"><path d="M42.112 24.577C48.344 24.337 53 19.211 53 12.445a3.93 3.93 0 00-1.155-2.782 3.946 3.946 0 00-2.787-1.152h-1.66c.191-1.208.366-2.418.532-3.668l.14-.977a2.555 2.555 0 00-.597-2.037 2.491 2.491 0 00-1.9-.829H10.718a2.493 2.493 0 00-1.922.865 2.48 2.48 0 00-.568 2.026c.241 1.54.49 3.097.755 4.62H6.942a3.947 3.947 0 00-2.788 1.152A3.93 3.93 0 003 12.445c0 6.79 4.697 11.933 10.971 12.132a17.559 17.559 0 0010.473 7.577v7.139h-2.855c-.814 0-1.595.323-2.171.897a3.06 3.06 0 00-.9 2.167 3.02 3.02 0 00.358 1.465h-.573a5.966 5.966 0 00-4.205 1.742 5.94 5.94 0 00-1.745 4.196v3.412a.828.828 0 00.83.828h29.535a.83.83 0 00.83-.828V49.76a5.931 5.931 0 00-1.743-4.199 5.958 5.958 0 00-4.208-1.739h-.564c.253-.447.387-.952.39-1.465a3.068 3.068 0 00-.904-2.167 3.081 3.081 0 00-2.174-.897h-2.88v-7.056c5.303-1.018 8.448-4.074 10.647-7.66zm6.954-14.467a2.333 2.333 0 012.332 2.327c0 5.582-3.419 9.755-8.298 10.434a45.657 45.657 0 001.576-3.362 57.538 57.538 0 002.49-9.399h1.9zM4.61 12.446a2.326 2.326 0 012.332-2.336h2.29a63.08 63.08 0 002.316 9.366c.357 1.178.83 2.318 1.41 3.404-4.871-.654-8.348-4.836-8.348-10.434zm32.962 32.983c1.151 0 2.255.456 3.07 1.269a4.326 4.326 0 011.27 3.062v2.633H13.995V49.76c0-1.148.458-2.25 1.272-3.062a4.345 4.345 0 013.069-1.269h19.236zM34.32 40.9a1.47 1.47 0 011.58 1.462 1.465 1.465 0 01-1.58 1.462H21.59a1.464 1.464 0 010-2.923h12.73zm-8.299-1.606V32.47c.691.092 1.387.142 2.084.15.597 0 1.17-.067 1.718-.125v6.815l-3.802-.016zm4.706-8.563h-.066a.719.719 0 00-.324.075c-.735.106-1.474.172-2.216.198-7.875 0-13.278-6.202-15.037-12.008-1.444-4.058-2.44-9.772-3.336-15.345a.901.901 0 01.904-1.043h34.855a.83.83 0 01.68.314c.184.192.264.46.216.72l-.132.978a66.18 66.18 0 01-3.162 14.318c-2.241 5.35-5.145 10.592-12.382 11.793z" fill="#008B77"/><path d="M36.339 12.488l-4.913-.693-2.191-4.377a.843.843 0 00-.73-.418.843.843 0 00-.732.418l-2.191 4.377-4.912.693a.835.835 0 00-.63.558.815.815 0 00.185.813l3.543 3.402-.84 4.806a.82.82 0 00.349.742.85.85 0 00.827.083l4.4-2.254 4.392 2.271a.748.748 0 00.378.09.851.851 0 00.478-.148.819.819 0 00.32-.826l-.84-4.805 3.543-3.402a.815.815 0 00.185-.814.835.835 0 00-.63-.557l.009.041zm-4.543 3.923a.817.817 0 00-.235.71l.63 3.583-3.309-1.651a.853.853 0 00-.756 0l-3.308 1.651.63-3.616a.818.818 0 00-.236-.71l-2.67-2.535 3.695-.529a.788.788 0 00.613-.437l1.68-3.303 1.679 3.303a.789.789 0 00.613.437l3.694.529-2.72 2.568z" fill="#008B77"/></svg>