<svg width="70" height="70" fill="none" xmlns="http://www.w3.org/2000/svg"><rect width="70" height="70" rx="35" fill="#D3E7E4"/><path d="M35.44 34.1s-1.121-7.532 7.542-7.532c8.662 0 7.541 8.787 7.541 8.787s.102 3.842-7.541 11.299c-6.459 6.3-7.542 6.237-7.542 6.237" stroke="#008B77" stroke-width="1.892" stroke-linecap="round" stroke-linejoin="round"/><path d="M35.406 34.111s1.116-7.543-7.508-7.543-7.509 8.799-7.509 8.799-.1 3.846 7.51 11.313c6.428 6.308 7.507 6.245 7.507 6.245M35.44 34.1s-1.257-3.766 1.257-5.021" stroke="#008B77" stroke-width="1.892" stroke-linecap="round" stroke-linejoin="round"/><path clip-rule="evenodd" d="M34.183 29.08c9.48 2.066 7.541-11.299 7.541-11.299s-12.207 5.352-7.541 11.298z" stroke="#008B77" stroke-width="1.892" stroke-linecap="round" stroke-linejoin="round"/><path d="M35.44 26.568s-.802-.454 3.77-5.021" stroke="#008B77" stroke-width=".946" stroke-linecap="round" stroke-linejoin="round"/></svg>