<svg width="146" height="144" fill="none" xmlns="http://www.w3.org/2000/svg"><mask id="a" fill="#fff"><path fill-rule="evenodd" clip-rule="evenodd" d="M72.852 144c40.235 0 72.852-32.235 72.852-72 0-39.764-32.617-72-72.852-72C32.617 0 0 32.236 0 72c0 39.765 32.617 72 72.852 72zM59.557 47.625a2 2 0 00-3.04 1.709v45.333a2 2 0 003.04 1.71l37.27-22.668a2 2 0 000-3.417l-37.27-22.667zm32.381 24.376l-31.42 19.11V52.89L91.938 72z"/></mask><path fill-rule="evenodd" clip-rule="evenodd" d="M72.852 144c40.235 0 72.852-32.235 72.852-72 0-39.764-32.617-72-72.852-72C32.617 0 0 32.236 0 72c0 39.765 32.617 72 72.852 72zM59.557 47.625a2 2 0 00-3.04 1.709v45.333a2 2 0 003.04 1.71l37.27-22.668a2 2 0 000-3.417l-37.27-22.667zm32.381 24.376l-31.42 19.11V52.89L91.938 72z" fill="#fff"/><path d="M57.538 47.59l-2.45-4.358 2.45 4.359zm2.02.035l2.597-4.272-2.598 4.272zm-2.02 48.786l-2.45 4.358 2.45-4.358zm2.02-.035l2.597 4.272-2.598-4.272zM96.825 73.71l2.599 4.272-2.599-4.272zm0-3.417l2.599-4.272-2.599 4.272zM60.518 91.11h-5v8.893l7.598-4.62-2.598-4.273zM91.938 72l2.598 4.273L101.56 72l-7.024-4.272L91.938 72zm-31.42-19.109l2.598-4.272L55.518 44v8.892h5zM140.704 72c0 36.948-30.323 67-67.852 67v10c42.941 0 77.852-34.419 77.852-77h-10zM72.852 5c37.529 0 67.852 30.052 67.852 67h10c0-42.581-34.911-77-77.852-77V5zM5 72C5 35.052 35.323 5 72.852 5V-5C29.912-5-5 29.419-5 72H5zm67.852 67C35.322 139 5 108.948 5 72H-5c0 42.581 34.911 77 77.852 77v-10zM59.988 51.949a3 3 0 01-3.029-.052l5.196-8.544a7 7 0 00-7.068-.12l4.901 8.716zm1.53-2.615a3 3 0 01-1.53 2.615l-4.9-8.717a7 7 0 00-3.57 6.102h10zm0 45.333V49.334h-10v45.333h10zm-1.53-2.615a3 3 0 011.53 2.615h-10a7 7 0 003.57 6.102l4.9-8.717zm-3.029.052a3 3 0 013.03-.052l-4.902 8.717a7 7 0 007.068-.121l-5.196-8.544zm37.27-22.666l-37.27 22.666 5.196 8.544 37.27-22.667-5.197-8.543zM92.786 72a3 3 0 011.441-2.564l5.197 8.544a6.999 6.999 0 003.362-5.98h-10zm1.441 2.563A3 3 0 0192.788 72h9.999a6.999 6.999 0 00-3.363-5.981l-5.196 8.544zM56.96 51.897l37.27 22.667 5.195-8.544-37.269-22.667-5.196 8.544zm6.157 43.485l31.42-19.11-5.196-8.543-31.42 19.11 5.196 8.543zm-7.598-42.49V91.11h10V52.891h-10zm39.018 14.837l-31.42-19.11-5.196 8.544 31.42 19.11 5.196-8.544z" fill="#fff" mask="url(#a)"/></svg>