<svg width="215" height="62" fill="none" xmlns="http://www.w3.org/2000/svg"><path d="M28.281 28.663s-1.186-7.964 7.98-7.964 7.98 9.292 7.98 9.292.108 4.061-7.98 11.946c-6.834 6.662-7.98 6.596-7.98 6.596" stroke="#111" stroke-width="2.355" stroke-linecap="round" stroke-linejoin="round"/><path d="M28.245 28.675s1.181-7.976-7.944-7.976-7.946 9.304-7.946 9.304-.106 4.067 7.946 11.962c6.803 6.67 7.944 6.603 7.944 6.603" stroke="#111" stroke-width="2.355" stroke-linecap="round" stroke-linejoin="round"/><path d="M28.28 28.663s-1.33-3.982 1.33-5.31" stroke="#008B77" stroke-width="2.355" stroke-linecap="round" stroke-linejoin="round"/><path clip-rule="evenodd" d="M26.95 23.354c10.032 2.185 7.981-11.946 7.981-11.946s-12.917 5.658-7.98 11.946z" stroke="#008B77" stroke-width="2.355" stroke-linecap="round" stroke-linejoin="round"/><path d="M28.28 20.699s-.848-.48 3.991-5.31" stroke="#008B77" stroke-width="1.177" stroke-linecap="round" stroke-linejoin="round"/><path fill-rule="evenodd" clip-rule="evenodd" d="M57.962 41.563V28.656h3.745v-1.664h-3.745v-.643a5.007 5.007 0 01.336-1.942c.168-.465.48-.864.892-1.139a4.16 4.16 0 011.04-.467 3.813 3.813 0 011.009-.132 3.11 3.11 0 01.702.058v-1.752a4.634 4.634 0 00-.907-.088c-.508 0-1.015.064-1.507.19a6.457 6.457 0 00-1.624.7 3.63 3.63 0 00-1.42 1.68 6.771 6.771 0 00-.54 2.862v.671h-1.844v1.665h1.846v12.907h2.02l-.003.001zm6.144-1.883a7.781 7.781 0 008.504 1.683 7.773 7.773 0 003.491-2.882 7.75 7.75 0 001.29-4.335 7.245 7.245 0 00-2.262-5.431 8.02 8.02 0 00-11.016 0 7.272 7.272 0 00-2.253 5.431 7.472 7.472 0 002.246 5.534zm1.449-9.69a5.743 5.743 0 016.257-1.242c.696.288 1.33.71 1.862 1.242a5.678 5.678 0 011.668 4.162 5.829 5.829 0 01-1.668 4.263 5.706 5.706 0 01-4.06 1.694 5.714 5.714 0 01-4.06-1.694 5.86 5.86 0 01-1.653-4.264 5.699 5.699 0 011.654-4.16zm15.347 9.69a7.781 7.781 0 008.503 1.683 7.774 7.774 0 003.492-2.882 7.75 7.75 0 001.289-4.335 7.245 7.245 0 00-2.268-5.431 8.02 8.02 0 00-11.016 0 7.273 7.273 0 00-2.253 5.431 7.472 7.472 0 002.253 5.534zm1.448-9.69a5.746 5.746 0 018.113 0 5.676 5.676 0 011.668 4.162 5.829 5.829 0 01-1.668 4.263 5.705 5.705 0 01-4.056 1.69 5.715 5.715 0 01-4.057-1.69 5.858 5.858 0 01-1.653-4.264 5.699 5.699 0 011.653-4.16zm19.559 11.93a5.554 5.554 0 005.122-3.067h.057l-.086 1.051v1.665h1.93V21.035h-1.995v7.27a6.16 6.16 0 00.089 1.11h-.06a5.05 5.05 0 00-1.975-2.117 5.477 5.477 0 00-2.853-.773 6.064 6.064 0 00-4.797 2.117 8.17 8.17 0 00-1.844 5.563 8.538 8.538 0 001.741 5.574 5.708 5.708 0 004.666 2.13l.005.01zm-2.983-12.003a4.319 4.319 0 013.393-1.577 3.958 3.958 0 013.438 1.726 6.959 6.959 0 011.214 4.115 6.42 6.42 0 01-1.36 4.468 4.386 4.386 0 01-3.379 1.489 4.141 4.141 0 01-3.38-1.62 6.68 6.68 0 01-1.303-4.308 6.303 6.303 0 011.377-4.298v.005zm14.146 8.717a4.1 4.1 0 002.443 2.54c.474.203.97.35 1.478.438.44.069.885.103 1.33.103.333-.011.665-.04.995-.088V39.11a3.459 3.459 0 01-.673.059c-.25 0-.5-.02-.746-.059a3.31 3.31 0 01-.82-.265 2.526 2.526 0 01-.79-.555 2.825 2.825 0 01-.57-.978 4.228 4.228 0 01-.234-1.475V29.24h3.569v-2.303h-3.569v-4.209h-2.78v4.21h-1.995v2.306h1.931v6.921a6.622 6.622 0 00.431 2.464v.005zm10.548 2.935V34.56a5.703 5.703 0 011.405-3.957 4.555 4.555 0 013.54-1.562 2.356 2.356 0 012.21.964c.427.85.623 1.796.57 2.745v8.819h2.838v-9.467c0-3.777-1.687-5.665-5.062-5.665a5.812 5.812 0 00-3.482 1.051 6.272 6.272 0 00-2.077 2.336h-.052l.117-1.226v-7.651h-2.838v20.616h2.838l-.007.006zm14.587-1.859a7.667 7.667 0 005.662 2.205 9.08 9.08 0 003.116-.568 7.75 7.75 0 002.619-1.534l-1.197-2.074a6.377 6.377 0 01-4.36 1.726 5.09 5.09 0 01-3.526-1.3 4.964 4.964 0 01-1.566-3.606h10.774a9.57 9.57 0 00.117-1.195 7.32 7.32 0 00-1.697-4.95 5.894 5.894 0 00-4.711-1.97 7.179 7.179 0 00-5.32 2.131 7.63 7.63 0 00-2.107 5.607 7.493 7.493 0 002.196 5.527v.001zm2.311-10.045a4.187 4.187 0 012.853-1.037 3.414 3.414 0 012.527 1.022 4.09 4.09 0 011.064 2.862h-7.929a4.619 4.619 0 011.485-2.848v.001zm14.114 11.898v-6.13a7.621 7.621 0 011.156-4.22 3.766 3.766 0 013.38-1.796c.274-.01.549.01.819.058v-2.803a6.6 6.6 0 00-.761-.059 4.251 4.251 0 00-2.897 1.11 6.25 6.25 0 00-1.814 2.803h-.058l.088-1.08v-2.655h-2.751v14.772h2.838zm6.759-.846a5.328 5.328 0 003.482 1.194 5.184 5.184 0 002.883-.847 5.608 5.608 0 001.975-2.16h.063l-.087 1.167v1.49h2.66v-9.345a5.755 5.755 0 00-1.522-4.293 5.936 5.936 0 00-4.33-1.489 10.042 10.042 0 00-3.073.497 7.263 7.263 0 00-2.458 1.255l1.142 2.074a7.106 7.106 0 014.155-1.431 2.873 2.873 0 013.248 3.241v.292h-.761c-.91-.003-1.819.056-2.721.175-.949.138-1.883.358-2.794.657a4.991 4.991 0 00-2.413 1.593 4.194 4.194 0 00-.908 2.745 3.905 3.905 0 001.463 3.185h-.004zm7.403-6.308h.732v.555a5.226 5.226 0 01-1.112 3.241 3.45 3.45 0 01-2.868 1.46 2.838 2.838 0 01-2.048-.7 2.23 2.23 0 01-.731-1.665c0-1.927 2.009-2.891 6.027-2.891zm9.159 12.995v-6.717a6.089 6.089 0 00-.117-1.284h.058a5.188 5.188 0 004.594 2.51 6.153 6.153 0 004.828-2.116 8.183 8.183 0 001.873-5.622 8.533 8.533 0 00-1.756-5.606 5.81 5.81 0 00-4.74-2.132 5.99 5.99 0 00-2.955.73 4.974 4.974 0 00-2.019 2.044h-.059l.088-1.11v-1.314h-2.633v20.617h2.838zm1.152-17.148a3.949 3.949 0 013.043-1.344 3.695 3.695 0 013.028 1.446 5.97 5.97 0 011.156 3.84 5.655 5.655 0 01-1.229 3.84 3.866 3.866 0 01-3.043 1.416 3.575 3.575 0 01-3.059-1.562 6.1 6.1 0 01-1.127-3.665 5.702 5.702 0 011.231-3.971zm9.975 16.528l.351.204c.33.2.684.356 1.053.468.462.154.947.233 1.434.233a4.91 4.91 0 002.882-.89 5.38 5.38 0 001.917-2.585l6.964-17.433h-3.073l-3.599 9.69c-.195.575-.361 1.16-.497 1.751h-.059l-.556-1.78-3.716-9.667h-3.192l6.203 14.601-.731 1.694a2.937 2.937 0 01-2.692 2.19 2.72 2.72 0 01-1.697-.642l-.992 2.166z" fill="#111"/></svg>