<svg width="218" height="62" fill="none" xmlns="http://www.w3.org/2000/svg"><path d="M28.701 29.09s-1.204-8.083 8.1-8.083c9.302 0 8.098 9.43 8.098 9.43s.11 4.122-8.099 12.123c-6.935 6.761-8.099 6.694-8.099 6.694" stroke="#fff" stroke-width="2.39" stroke-linecap="round" stroke-linejoin="round"/><path d="M28.665 29.102s1.199-8.095-8.062-8.095-8.064 9.442-8.064 9.442-.108 4.127 8.064 12.14c6.904 6.769 8.062 6.701 8.062 6.701" stroke="#fff" stroke-width="2.39" stroke-linecap="round" stroke-linejoin="round"/><path d="M28.701 29.089s-1.35-4.041 1.35-5.388" stroke="#008B77" stroke-width="2.39" stroke-linecap="round" stroke-linejoin="round"/><path clip-rule="evenodd" d="M27.352 23.7c10.18 2.218 8.098-12.123 8.098-12.123s-13.109 5.743-8.098 12.124z" stroke="#008B77" stroke-width="2.39" stroke-linecap="round" stroke-linejoin="round"/><path d="M28.701 21.006s-.86-.487 4.05-5.388" stroke="#008B77" stroke-width="1.195" stroke-linecap="round" stroke-linejoin="round"/><path fill-rule="evenodd" clip-rule="evenodd" d="M58.823 42.181V29.082h3.801v-1.689h-3.8v-.652a5.085 5.085 0 01.34-1.97c.17-.473.488-.878.907-1.157a4.226 4.226 0 011.054-.474 3.87 3.87 0 011.024-.134 3.15 3.15 0 01.713.059v-1.778a4.694 4.694 0 00-.92-.09 6.21 6.21 0 00-1.53.193c-.58.16-1.134.4-1.648.712-.646.405-1.149 1-1.44 1.704a6.872 6.872 0 00-.55 2.904v.682h-1.87v1.689h1.873V42.18h2.049l-.003.001zm6.236-1.911a7.897 7.897 0 008.63 1.708 7.888 7.888 0 003.544-2.925 7.865 7.865 0 001.308-4.4 7.354 7.354 0 00-2.295-5.511 8.139 8.139 0 00-11.18 0 7.381 7.381 0 00-2.287 5.512 7.584 7.584 0 002.28 5.616zm1.47-9.834a5.828 5.828 0 016.35-1.26c.707.292 1.35.72 1.89 1.26a5.762 5.762 0 011.693 4.223 5.914 5.914 0 01-1.692 4.327 5.788 5.788 0 01-4.12 1.719 5.8 5.8 0 01-4.12-1.719 5.947 5.947 0 01-1.678-4.327 5.782 5.782 0 011.677-4.223zm15.575 9.834a7.897 7.897 0 008.63 1.708 7.888 7.888 0 003.544-2.925 7.865 7.865 0 001.308-4.4 7.354 7.354 0 00-2.301-5.511 8.138 8.138 0 00-11.18 0 7.382 7.382 0 00-2.287 5.512 7.582 7.582 0 002.286 5.616zm1.47-9.834a5.832 5.832 0 018.234 0 5.761 5.761 0 011.693 4.223 5.918 5.918 0 01-1.693 4.327 5.792 5.792 0 01-6.348 1.27 5.79 5.79 0 01-1.886-1.27 5.945 5.945 0 01-1.677-4.327 5.784 5.784 0 011.677-4.223zm19.85 12.106a5.637 5.637 0 003.055-.798 5.617 5.617 0 002.143-2.313h.058l-.087 1.067v1.689h1.958v-20.84h-2.024v7.38a6.25 6.25 0 00.09 1.126h-.061a5.118 5.118 0 00-2.004-2.149 5.557 5.557 0 00-2.895-.785 6.156 6.156 0 00-4.87 2.148 8.292 8.292 0 00-1.87 5.646 8.664 8.664 0 001.767 5.658 5.792 5.792 0 004.735 2.162l.005.01zm-3.027-12.18a4.385 4.385 0 013.443-1.6 4.018 4.018 0 013.489 1.75 7.062 7.062 0 011.233 4.177 6.52 6.52 0 01-1.381 4.534 4.453 4.453 0 01-3.429 1.512 4.2 4.2 0 01-3.431-1.645A6.78 6.78 0 0199 34.718a6.396 6.396 0 011.397-4.361v.005zm14.356 8.846a4.167 4.167 0 002.48 2.579 6.71 6.71 0 001.499.444c.447.07.898.104 1.35.104a9.338 9.338 0 001.01-.089v-2.554a3.515 3.515 0 01-.683.06 4.79 4.79 0 01-.757-.06 3.348 3.348 0 01-.832-.27 2.566 2.566 0 01-.802-.563 2.868 2.868 0 01-.579-.992 4.28 4.28 0 01-.237-1.497v-6.695h3.622v-2.337h-3.622v-4.272h-2.821v4.272h-2.025v2.341h1.96v7.024a6.733 6.733 0 00.437 2.5v.005zm10.705 2.979v-7.113a5.787 5.787 0 011.426-4.016 4.616 4.616 0 013.593-1.585 2.39 2.39 0 012.242.978 5.52 5.52 0 01.579 2.786v8.95h2.88v-9.608c0-3.833-1.712-5.75-5.137-5.75a5.898 5.898 0 00-3.534 1.068 6.363 6.363 0 00-2.108 2.37h-.053l.119-1.244v-7.765h-2.88v20.923h2.88l-.007.006zm14.803-1.886a7.78 7.78 0 005.746 2.237 9.218 9.218 0 003.163-.576 7.873 7.873 0 002.658-1.558l-1.215-2.104a6.47 6.47 0 01-4.425 1.752 5.167 5.167 0 01-3.578-1.32 5.028 5.028 0 01-1.589-3.66h10.934c.065-.4.105-.805.118-1.212a7.425 7.425 0 00-1.722-5.023 5.972 5.972 0 00-4.781-2A7.285 7.285 0 00140.171 29a7.744 7.744 0 00-2.138 5.69 7.606 7.606 0 002.228 5.61zm2.346-10.195a4.249 4.249 0 012.896-1.052 3.464 3.464 0 012.564 1.037 4.147 4.147 0 011.08 2.905H141.1a4.688 4.688 0 011.507-2.891v.001zm14.324 12.075V35.96c-.036-1.511.372-3 1.173-4.282a3.82 3.82 0 013.43-1.823c.279-.01.557.01.832.06v-2.846a6.675 6.675 0 00-.773-.059 4.31 4.31 0 00-2.939 1.126 6.35 6.35 0 00-1.842 2.845h-.059l.089-1.096V27.19h-2.791v14.99h2.88zm6.86-.86a5.407 5.407 0 003.534 1.213 5.262 5.262 0 002.925-.86 5.688 5.688 0 002.004-2.192h.065l-.089 1.185v1.512h2.699v-9.484a5.805 5.805 0 00-.321-2.337 5.841 5.841 0 00-1.223-2.02 6.007 6.007 0 00-4.395-1.51 10.192 10.192 0 00-3.118.503 7.36 7.36 0 00-2.494 1.274l1.158 2.104a7.214 7.214 0 014.217-1.452 2.92 2.92 0 012.472.823 2.914 2.914 0 01.824 2.467v.296h-.772a20.507 20.507 0 00-2.762.178c-.962.14-1.911.363-2.834.667a5.067 5.067 0 00-2.45 1.616 4.254 4.254 0 00-.921 2.786 3.95 3.95 0 001.485 3.232h-.004zm7.513-6.4h.742v.563a5.302 5.302 0 01-1.128 3.29 3.5 3.5 0 01-2.91 1.481 2.88 2.88 0 01-2.079-.711 2.26 2.26 0 01-.742-1.69c0-1.956 2.039-2.934 6.117-2.934zm9.294 13.188v-6.817a6.202 6.202 0 00-.118-1.304h.059a5.265 5.265 0 004.662 2.549 6.25 6.25 0 004.9-2.149 8.298 8.298 0 001.9-5.705 8.663 8.663 0 00-1.781-5.69 5.903 5.903 0 00-4.811-2.163 6.084 6.084 0 00-2.999.74 5.049 5.049 0 00-2.049 2.075h-.059l.089-1.126v-1.333h-2.673v20.922h2.88zm1.169-17.404a4.021 4.021 0 013.089-1.363 3.749 3.749 0 013.073 1.467 6.06 6.06 0 011.173 3.897 5.744 5.744 0 01-1.247 3.897 3.926 3.926 0 01-3.088 1.438 3.627 3.627 0 01-3.105-1.586 6.189 6.189 0 01-1.143-3.719 5.786 5.786 0 011.248-4.03zm10.124 16.774l.356.208a4.69 4.69 0 001.069.474c.469.157.961.237 1.455.237a4.982 4.982 0 002.925-.904 5.458 5.458 0 001.945-2.623l7.068-17.692h-3.118l-3.653 9.834a18.266 18.266 0 00-.505 1.778h-.059l-.564-1.808-3.772-9.81h-3.239l6.295 14.818-.742 1.72a2.973 2.973 0 01-2.732 2.222 2.76 2.76 0 01-1.722-.652l-1.007 2.198z" fill="#fff"/></svg>