<svg width="303" height="74" fill="none" xmlns="http://www.w3.org/2000/svg"><path d="M27.174 34.716S25.31 22.2 39.718 22.2c14.407 0 12.542 14.603 12.542 14.603s.17 6.384-12.542 18.776c-10.742 10.47-12.544 10.366-12.544 10.366" stroke="#fff" stroke-width="1.881" stroke-linecap="round" stroke-linejoin="round"/><path d="M27.12 34.735s1.856-12.536-12.487-12.536S2.145 36.821 2.145 36.821s-.168 6.392 12.488 18.8C25.326 66.104 27.12 66 27.12 66" stroke="#fff" stroke-width="1.881" stroke-linecap="round" stroke-linejoin="round"/><path d="M27.177 34.715s-2.09-6.259 2.09-8.345" stroke="#9BA2AC" stroke-width="1.881" stroke-linecap="round" stroke-linejoin="round"/><path clip-rule="evenodd" d="M25.086 26.371C40.853 29.805 37.629 7.596 37.629 7.596S17.326 16.489 25.086 26.37z" stroke="#9BA2AC" stroke-width="1.881" stroke-linecap="round" stroke-linejoin="round"/><path d="M27.178 22.198s-1.334-.755 6.271-8.345" stroke="#9BA2AC" stroke-width=".94" stroke-linecap="round" stroke-linejoin="round"/><path fill-rule="evenodd" clip-rule="evenodd" d="M73.829 54.991V34.705h5.886V32.09H73.83v-1.01a7.874 7.874 0 01.529-3.051 3.63 3.63 0 011.402-1.79 6.547 6.547 0 011.633-.735c.517-.14 1.05-.21 1.587-.208.37-.012.74.02 1.103.091v-2.753a7.282 7.282 0 00-1.425-.138c-.8 0-1.595.1-2.369.299-.897.248-1.756.619-2.552 1.1-1 .629-1.78 1.55-2.23 2.64a10.64 10.64 0 00-.852 4.498v1.055h-2.897v2.616h2.901V54.99h3.174l-.004.002zm9.658-2.96a12.246 12.246 0 0013.365 2.645c2.24-.933 4.15-2.51 5.488-4.53a12.183 12.183 0 002.027-6.812 11.394 11.394 0 00-3.554-8.537 12.607 12.607 0 00-17.316 0 11.432 11.432 0 00-3.541 8.537 11.743 11.743 0 003.53 8.697zm2.276-15.229a9.024 9.024 0 016.381-2.639 9.039 9.039 0 016.382 2.639 8.912 8.912 0 012.621 6.54 9.164 9.164 0 01-2.621 6.7 8.967 8.967 0 01-6.382 2.663 8.982 8.982 0 01-6.38-2.662 9.208 9.208 0 01-2.6-6.701 8.954 8.954 0 012.6-6.54zm24.122 15.229a12.249 12.249 0 0013.366 2.645 12.223 12.223 0 005.488-4.53 12.182 12.182 0 002.026-6.812 11.385 11.385 0 00-3.564-8.537 12.606 12.606 0 00-17.316 0 11.434 11.434 0 00-3.541 8.537 11.756 11.756 0 003.541 8.697zm2.277-15.229a9.032 9.032 0 0112.752 0 8.91 8.91 0 012.621 6.54 9.164 9.164 0 01-2.621 6.7 8.973 8.973 0 01-9.831 1.967 8.973 8.973 0 01-2.921-1.966 9.2 9.2 0 01-2.599-6.701 8.979 8.979 0 01.63-3.535 8.983 8.983 0 011.969-3.005zm30.743 18.748a8.735 8.735 0 004.731-1.235 8.706 8.706 0 003.319-3.584h.09l-.136 1.652V55h3.034V22.727h-3.136v11.428a9.8 9.8 0 00.14 1.744h-.094a7.936 7.936 0 00-3.105-3.328 8.604 8.604 0 00-4.484-1.216 9.534 9.534 0 00-7.54 3.327 12.838 12.838 0 00-2.898 8.743 13.423 13.423 0 002.737 8.762 8.973 8.973 0 007.333 3.349l.009.014zm-4.689-18.863a6.79 6.79 0 015.333-2.478 6.224 6.224 0 015.404 2.712 10.94 10.94 0 011.908 6.467 10.094 10.094 0 01-2.138 7.022 6.906 6.906 0 01-5.31 2.34 6.49 6.49 0 01-5.314-2.547 10.495 10.495 0 01-2.047-6.77 9.907 9.907 0 012.164-6.754v.008zm22.234 13.7a6.449 6.449 0 003.84 3.993c.745.319 1.525.55 2.323.688a13.43 13.43 0 002.09.16 14.374 14.374 0 001.564-.137v-3.955a5.449 5.449 0 01-1.058.092c-.392 0-.784-.03-1.172-.092a5.186 5.186 0 01-1.288-.417 3.954 3.954 0 01-1.242-.872c-.4-.447-.705-.97-.897-1.538a6.645 6.645 0 01-.368-2.318V35.623h5.611v-3.62h-5.611V25.39h-4.369v6.615h-3.135v3.626h3.035v10.877a10.426 10.426 0 00.677 3.872v.008zm16.58 4.612V43.985a8.96 8.96 0 012.207-6.22 7.166 7.166 0 015.565-2.455 3.702 3.702 0 013.473 1.515 8.538 8.538 0 01.896 4.314V55h4.462V40.121c0-5.936-2.653-8.904-7.957-8.904a9.134 9.134 0 00-5.473 1.653 9.855 9.855 0 00-3.265 3.671h-.082l.184-1.927V22.589h-4.461v32.402h4.461l-.01.008zm22.926-2.92a12.065 12.065 0 008.9 3.465 14.25 14.25 0 004.898-.893 12.178 12.178 0 004.116-2.412l-1.882-3.258a10.02 10.02 0 01-6.852 2.712 8.001 8.001 0 01-5.542-2.042 7.787 7.787 0 01-2.461-5.669h16.933c.102-.62.163-1.248.184-1.877a11.497 11.497 0 00-2.667-7.78 9.24 9.24 0 00-7.405-3.097 11.282 11.282 0 00-8.362 3.35 12.005 12.005 0 00-3.311 8.812 11.782 11.782 0 003.451 8.687v.002zm3.634-15.788a6.577 6.577 0 014.484-1.63 5.362 5.362 0 013.972 1.607 6.43 6.43 0 011.672 4.498h-12.464a7.257 7.257 0 012.336-4.477v.002zm22.184 18.7v-9.636a11.974 11.974 0 011.816-6.632 5.92 5.92 0 015.312-2.822c.432-.015.863.016 1.288.091v-4.405a10.352 10.352 0 00-1.196-.092 6.68 6.68 0 00-4.553 1.744 9.825 9.825 0 00-2.851 4.406h-.092l.138-1.698v-4.173h-4.323v23.217h4.461zm10.624-1.33a8.373 8.373 0 005.473 1.877 8.146 8.146 0 004.53-1.331 8.806 8.806 0 003.104-3.397h.1l-.138 1.836v2.34h4.181V40.3a9.018 9.018 0 00-2.391-6.746 9.314 9.314 0 00-6.807-2.34c-1.64.007-3.27.27-4.829.78a11.397 11.397 0 00-3.863 1.973l1.794 3.258a11.17 11.17 0 016.53-2.248 4.523 4.523 0 013.829 1.274 4.5 4.5 0 011.276 3.82v.459h-1.195a31.77 31.77 0 00-4.278.275c-1.49.217-2.959.562-4.39 1.033a7.854 7.854 0 00-3.794 2.503 6.592 6.592 0 00-1.426 4.315 6.139 6.139 0 002.3 5.004h-.006zm11.635-9.914h1.15v.872a8.21 8.21 0 01-1.747 5.094 5.423 5.423 0 01-4.508 2.295 4.46 4.46 0 01-3.219-1.102 3.502 3.502 0 01-1.15-2.616c0-3.029 3.158-4.543 9.474-4.543zm14.395 20.423V53.614a9.572 9.572 0 00-.183-2.02h.092a8.14 8.14 0 003.074 2.95 8.165 8.165 0 004.146.998 9.674 9.674 0 007.589-3.328 12.855 12.855 0 002.943-8.834 13.412 13.412 0 00-2.76-8.812 9.156 9.156 0 00-7.45-3.35 9.42 9.42 0 00-4.645 1.147 7.819 7.819 0 00-3.173 3.212h-.092l.138-1.744v-2.065h-4.14V64.17h4.461zm1.811-26.95a6.218 6.218 0 014.783-2.112 5.814 5.814 0 014.76 2.272 9.39 9.39 0 011.817 6.035 8.892 8.892 0 01-1.932 6.035 6.075 6.075 0 01-4.783 2.226 5.612 5.612 0 01-4.808-2.455 9.578 9.578 0 01-1.771-5.76 8.96 8.96 0 011.934-6.242zm15.679 25.976l.551.321a7.27 7.27 0 001.656.734 7.084 7.084 0 002.254.368 7.72 7.72 0 004.53-1.4 8.46 8.46 0 003.012-4.062l10.946-27.4h-4.829l-5.657 15.23a28.266 28.266 0 00-.782 2.753h-.092l-.874-2.8-5.84-15.19h-5.018l9.75 22.947-1.149 2.662a4.606 4.606 0 01-4.231 3.442 4.278 4.278 0 01-2.668-1.01l-1.559 3.405z" fill="#fff"/></svg>