<svg width="127" height="156" fill="none" xmlns="http://www.w3.org/2000/svg"><path d="M63.227.52a2.369 2.369 0 00-1.421.654l-9.62 9.632L41.09 6.07a2.37 2.37 0 00-2.596.486 2.351 2.351 0 00-.52.766l-4.81 11.101h-12.79a2.367 2.367 0 00-1.659.689 2.346 2.346 0 00-.691 1.651v12.734l-11.15 4.789a2.356 2.356 0 00-1.255 1.268 2.341 2.341 0 00-.003 1.78l4.755 11.1-9.674 9.578a2.349 2.349 0 00-.447 2.72c.148.294.356.554.61.763l9.511 7.836-4.81 12.788a2.342 2.342 0 00.05 1.76c.244.559.697 1 1.262 1.234l11.15 4.788v8.489L.37 132.267a2.342 2.342 0 00.845 3.214c.357.209.763.32 1.177.323h22.082l11.861 18.611a2.356 2.356 0 002.053 1.084 2.369 2.369 0 001.992-1.192l18.475-31.671 2.842 3.374a2.362 2.362 0 001.804.833 2.37 2.37 0 001.804-.833l2.842-3.374 18.475 31.671a2.356 2.356 0 001.992 1.192 2.367 2.367 0 002.053-1.084l11.861-18.611h22.082a2.363 2.363 0 002.036-1.188 2.344 2.344 0 00-.014-2.349l-17.655-29.876v-8.489l11.151-4.788a2.347 2.347 0 001.312-2.993l-4.81-12.789 9.51-7.836a2.354 2.354 0 00.858-1.705 2.341 2.341 0 00-.694-1.778l-9.674-9.577 4.755-11.102c.233-.57.232-1.21-.003-1.78a2.354 2.354 0 00-1.254-1.267l-11.151-4.789V20.764a2.346 2.346 0 00-.691-1.651 2.368 2.368 0 00-1.659-.689h-12.79l-4.81-11.101a2.351 2.351 0 00-1.295-1.274 2.37 2.37 0 00-1.82.022l-11.097 4.735-9.62-9.632A2.363 2.363 0 0063.227.52zm.273 5.715l9.128 9.033a2.365 2.365 0 002.569.49l10.44-4.462 4.427 10.393a2.37 2.37 0 002.186 1.415h12.026v11.972c.006.453.144.893.396 1.27.252.376.608.672 1.025.853l10.44 4.462-4.482 10.394a2.34 2.34 0 00.492 2.557l8.964 8.925-8.8 7.292a2.345 2.345 0 00-.711 2.612l4.591 12.19-10.494 4.516a2.358 2.358 0 00-1.04.876 2.34 2.34 0 00-.381 1.301v10.612a2.35 2.35 0 000 .489v.871H92.251a2.366 2.366 0 00-2.187 1.415l-4.482 10.448-12.243-4.571a2.372 2.372 0 00-2.679.708l-7.16 8.543-7.16-8.543a2.372 2.372 0 00-2.678-.708l-12.244 4.571-4.482-10.448a2.366 2.366 0 00-2.186-1.415H22.723v-.925a2.34 2.34 0 000-.708V92.324a2.343 2.343 0 00-1.42-2.177l-10.495-4.516L15.4 73.44a2.34 2.34 0 00-.71-2.612l-8.8-7.292 8.963-8.925a2.348 2.348 0 00.492-2.557L10.863 41.66l10.44-4.462a2.343 2.343 0 001.421-2.122V23.103H34.75a2.369 2.369 0 002.187-1.415l4.427-10.393 10.44 4.462a2.371 2.371 0 002.569-.49L63.5 6.235zM19.663 108.867c.23.072.47.108.711.108h12.79l4.81 11.101a2.37 2.37 0 003.006 1.252l12.79-4.734 1.804 2.176-17.326 29.821-10.495-16.379a2.366 2.366 0 00-2.022-1.089H6.49l13.172-22.256zm87.674 0l13.172 22.257h-19.24a2.366 2.366 0 00-2.022 1.088l-10.495 16.38-17.326-29.821 1.803-2.177 12.79 4.735a2.37 2.37 0 001.755-.027 2.357 2.357 0 001.252-1.225l4.81-11.101h12.79c.241 0 .481-.037.711-.109z" fill="#008B77"/><path d="M49.784 62.873l8.352 8.776L79.216 49.5 82 52.425 58.136 77.5 47 65.799l2.784-2.926z" fill="#008B77"/></svg>