<svg width="80" height="81" fill="none" xmlns="http://www.w3.org/2000/svg"><g clip-path="url(#clip0_1667_28188)"><path d="M6.668 13.81a3.333 3.333 0 013.307-3.31h60.053a3.309 3.309 0 013.307 3.31v53.38a3.333 3.333 0 01-3.307 3.31H9.975a3.31 3.31 0 01-3.307-3.31V13.81zm6.667 3.357v46.666h53.333V17.167H13.335zM35.408 28.55l16.263 10.84a1.332 1.332 0 010 2.22L35.405 52.45a1.333 1.333 0 01-2.07-1.107V29.657a1.333 1.333 0 012.073-1.107z" fill="#F5FFFE"/></g><defs><clipPath id="clip0_1667_28188"><path fill="#fff" transform="translate(0 .5)" d="M0 0h80v80H0z"/></clipPath></defs></svg>